# xmcd
#
# Track frame offsets: 
#        150
#        21444
#        37125
#        54845
#        72587
#        90098
#        106835
#        121191
#        142001
#        154853
#
# Disc length: 2217 seconds
#
# Revision: 2
# Processed by: cddbd v1.5.2PL0 Copyright (c) Steve Scherf et al.
# Submitted via: ExactAudioCopy v1.3
#
DISCID=8108a70a
DTITLE=Dan Seals - Stones
DYEAR=1980
DGENRE=Country/ Rock
TTITLE0=Stones (Dig A Little Deeper)
TTITLE1=Late At Night
TTITLE2=Love Me Like The Last Time
TTITLE3=Getting To The Point
TTITLE4=How Do I Survive
TTITLE5=Holdin' Out For Love
TTITLE6=You Could've Been The One
TTITLE7=Take You Home
TTITLE8=When It's Over
TTITLE9=Lullaby
EXTD=
EXTT0=
EXTT1=
EXTT2=
EXTT3=
EXTT4=
EXTT5=
EXTT6=
EXTT7=
EXTT8=
EXTT9=
PLAYORDER=
